<?xml version="1.0" encoding="UTF-8"?>
<svg width="1200" height="600" viewBox="0 0 1200 600" xmlns="http://www.w3.org/2000/svg">
  <defs>
    <linearGradient id="g1" x1="0" y1="0" x2="1" y2="1">
      <stop offset="0" stop-color="#8b5cf6"/>
      <stop offset="1" stop-color="#4f46e5"/>
    </linearGradient>
    <linearGradient id="g2" x1="1" y1="0" x2="0" y2="1">
      <stop offset="0" stop-color="#a78bfa" stop-opacity=".9"/>
      <stop offset="1" stop-color="#6366f1" stop-opacity=".9"/>
    </linearGradient>
    <filter id="blur"><feGaussianBlur stdDeviation="40"/></filter>
  </defs>
  <rect width="1200" height="600" fill="#ffffff"/>
  <!-- Glow Orbs -->
  <circle cx="220" cy="120" r="120" fill="url(#g1)" filter="url(#blur)" opacity="0.35"/>
  <circle cx="980" cy="200" r="140" fill="url(#g2)" filter="url(#blur)" opacity="0.28"/>
  <!-- Waves -->
  <path d="M0,420 C200,360 360,520 600,460 C860,390 960,520 1200,460 L1200,600 L0,600 Z" fill="url(#g1)" opacity="0.25"/>
  <path d="M0,460 C220,420 380,540 600,500 C860,450 980,560 1200,520 L1200,600 L0,600 Z" fill="url(#g2)" opacity="0.3"/>
  <!-- Device mockup -->
  <g transform="translate(300,120)">
    <rect x="0" y="0" rx="20" ry="20" width="600" height="360" fill="#ffffff" stroke="#e5e7eb"/>
    <rect x="24" y="24" rx="12" ry="12" width="552" height="60" fill="#f3f4f6"/>
    <circle cx="54" cy="54" r="12" fill="#8b5cf6"/>
    <rect x="84" y="44" width="140" height="20" rx="6" fill="#d1d5db"/>

    <g transform="translate(24,108)">
      <rect x="0" y="0" width="170" height="110" rx="16" fill="#faf5ff" stroke="#ebe9fe"/>
      <text x="20" y="36" font-size="18" font-weight="700" fill="#4f46e5">自动提报</text>
      <text x="20" y="66" font-size="12" fill="#6b7280">10分钟 2000+ 商品</text>
    </g>
    <g transform="translate(206,108)">
      <rect x="0" y="0" width="170" height="110" rx="16" fill="#f5f7ff" stroke="#e5e7ff"/>
      <text x="20" y="36" font-size="18" font-weight="700" fill="#4f46e5">标题优化</text>
      <text x="20" y="66" font-size="12" fill="#6b7280">热搜词 一键加持</text>
    </g>
    <g transform="translate(388,108)">
      <rect x="0" y="0" width="170" height="110" rx="16" fill="#eef2ff" stroke="#e0e7ff"/>
      <text x="20" y="36" font-size="18" font-weight="700" fill="#4f46e5">多店铺</text>
      <text x="20" y="66" font-size="12" fill="#6b7280">并行批量 高效稳定</text>
    </g>

    <g transform="translate(24,238)">
      <rect x="0" y="0" width="534" height="80" rx="12" fill="#f9fafb" stroke="#e5e7eb"/>
      <rect x="16" y="20" width="180" height="14" rx="7" fill="#e5e7eb"/>
      <rect x="16" y="46" width="260" height="12" rx="6" fill="#e5e7eb"/>
      <rect x="430" y="24" width="88" height="32" rx="8" fill="#8b5cf6"/>
      <text x="448" y="46" font-size="14" font-weight="700" fill="#ffffff">立即开始</text>
    </g>
  </g>
</svg>